# xmcd
# Track frame offsets:
# 150
# 18392
# 39802
# 58820
# 76430
# 103100
# 124497
# 145257
# 164690
# 183697
# 203237
# 227315
# 245010
# 263440
# 282530
#
# Disc length: 3987 seconds
# Revision: 0
# Processed by: cddbd v1.4PL0 Copyright (c) Steve Scherf et al.
# Submitted via: VisiTrax 2.9.5.181 - For more info visit www.synapsa.com
#
DISCID=d90f910f
DTITLE=Willie Clayton - Classic Soul Vol. 1
DYEAR=2003
DGENRE=Blues
TTITLE0=I Love Stealin' It
TTITLE1=I Love Me Some You (Remxi)
TTITLE2=Won't You Be My Lollipop
TTITLE3=Loving Each Other 4 Life
TTITLE4=Party Like We Use To Do
TTITLE5=Wiggle
TTITLE6=Simply Beautiful
TTITLE7=Tell Me
TTITLE8=Three People
TTITLE9=Let's Get Together
TTITLE10=Good Enough To Keep Me
TTITLE11=The Blues
TTITLE12=Love Is Something Beautiful
TTITLE13=Sparetime
TTITLE14=No Getting Over Me
EXTD=
EXTT0=
EXTT1=
EXTT2=
EXTT3=
EXTT4=
EXTT5=
EXTT6=
EXTT7=
EXTT8=
EXTT9=
EXTT10=
EXTT11=
EXTT12=
EXTT13=
EXTT14=
PLAYORDER=
